<svg width="195" height="24" viewBox="0 0 195 24" fill="none" xmlns="http://www.w3.org/2000/svg">
<path d="M5.41441 23.12C4.27639 23.12 3.32459 22.6441 2.55901 21.6923C1.79344 20.7405 1.41065 19.437 1.41065 17.7817C1.41065 16.9333 1.50376 15.9815 1.68998 14.9263C1.8762 13.8503 2.09346 12.7641 2.34176 11.6674C2.59005 10.5708 2.80731 9.54657 2.99353 8.59477C3.17975 7.62228 3.27286 6.81532 3.27286 6.17389C3.27286 5.71868 3.21079 5.36693 3.08664 5.11864C2.96249 4.84965 2.73489 4.71516 2.40383 4.71516C2.15553 4.71516 1.86586 4.82896 1.5348 5.05656C1.20374 5.28417 0.955442 5.72903 0.789912 6.39115L0.479543 6.267C0.479543 4.48755 0.883023 3.08055 1.68998 2.04599C2.51763 1.01142 3.62461 0.494143 5.01093 0.494143C6.31448 0.494143 7.21455 0.918313 7.71114 1.76665C8.22842 2.615 8.48706 3.6806 8.48706 4.96345C8.48706 5.91525 8.3836 6.92912 8.17669 8.00507C7.99047 9.08101 7.77321 10.157 7.52491 11.2329C7.27662 12.2882 7.04902 13.271 6.8421 14.1814C6.65588 15.0918 6.56277 15.8471 6.56277 16.4471C6.56277 17.3368 6.79038 17.7817 7.24558 17.7817C7.51457 17.7817 7.87667 17.5955 8.33187 17.223C8.78708 16.8299 9.26298 16.3023 9.75957 15.6401C10.2769 14.9573 10.7734 14.1918 11.2493 13.3434C11.7252 12.4744 12.1287 11.564 12.4598 10.6122C12.4184 10.157 12.3874 9.72244 12.3667 9.30862C12.346 8.8741 12.3356 8.49131 12.3356 8.16025C12.3356 6.50495 12.4908 5.17037 12.8012 4.1565C13.1322 3.14262 13.5461 2.39774 14.0427 1.92184C14.5393 1.44594 15.0462 1.20799 15.5635 1.20799C16.2877 1.20799 16.9394 1.61147 17.5188 2.41843C18.0981 3.2047 18.3878 4.28064 18.3878 5.64626C18.3878 6.49461 18.2326 7.4464 17.9223 8.50166C17.6119 9.53622 17.0946 10.6432 16.3704 11.8226C16.3084 13.6021 16.5049 15.0401 16.9601 16.1367C17.4153 17.2334 17.9843 17.7817 18.6672 17.7817C19.1017 17.7817 19.5672 17.5644 20.0638 17.1299C20.5811 16.6747 21.057 16.054 21.4915 15.2677C21.926 14.4607 22.2778 13.5296 22.5468 12.4744C22.8364 11.4191 22.9813 10.2915 22.9813 9.09136C22.9813 8.38786 22.9296 7.65332 22.8261 6.88774C22.7433 6.12216 22.6295 5.38762 22.4847 4.68412C22.3605 3.98062 22.2261 3.40126 22.0812 2.94606C22.0812 2.5943 22.2261 2.24255 22.5157 1.8908C22.8261 1.51836 23.2192 1.20799 23.6951 0.959695C24.171 0.690709 24.6573 0.556215 25.1539 0.556215C25.6505 0.556215 26.1264 0.732091 26.5816 1.08384C27.0368 1.43559 27.4092 2.05633 27.6989 2.94606C27.9886 3.81509 28.1334 5.05656 28.1334 6.67048C28.1334 8.92583 27.8437 11.0467 27.2644 13.033C26.685 14.9987 25.8987 16.7368 24.9056 18.2472C23.9331 19.7577 22.8571 20.9474 21.6777 21.8165C20.4983 22.6648 19.2982 23.089 18.0775 23.089C17.0015 23.089 16.1118 22.7579 15.4083 22.0958C14.7048 21.4337 14.1565 20.544 13.7633 19.4266C13.3702 18.3093 13.0909 17.0678 12.9253 15.7022C12.1804 17.4817 11.3735 18.9197 10.5045 20.0163C9.63542 21.0923 8.76639 21.8786 7.89736 22.3751C7.02832 22.8717 6.20067 23.12 5.41441 23.12ZM32.7756 23.089C32.0307 23.089 31.3686 22.789 30.7892 22.1889C30.2099 21.5682 29.9202 20.6992 29.9202 19.5818C29.9202 19.0439 29.9823 18.4335 30.1064 17.7506C30.2306 17.0678 30.3754 16.3747 30.5409 15.6712C30.7065 14.947 30.8513 14.2745 30.9755 13.6538C31.0996 13.0124 31.1617 12.4847 31.1617 12.0709C31.1617 11.6364 31.0789 11.295 30.9134 11.0467C30.7685 10.7777 30.572 10.6432 30.3237 10.6432C29.9306 10.6432 29.5271 10.9122 29.1132 11.4502L28.927 11.326C28.9063 10.995 28.9788 10.6018 29.1443 10.1466C29.3098 9.6914 29.5685 9.25689 29.9202 8.84306C30.272 8.40855 30.7168 8.04645 31.2548 7.75677C31.8135 7.4671 32.4652 7.32226 33.2101 7.32226C34.3068 7.32226 35.1034 7.64297 35.6 8.2844C36.0965 8.90514 36.3448 9.66037 36.3448 10.5501C36.3448 10.6949 36.3345 10.8501 36.3138 11.0156C36.3138 11.1605 36.3035 11.3053 36.2828 11.4502C37.0277 10.1052 37.8036 9.08101 38.6105 8.37751C39.4382 7.65332 40.2038 7.29122 40.9073 7.29122C41.5694 7.29122 42.0556 7.54986 42.366 8.06714C42.6764 8.58442 42.8315 9.20516 42.8315 9.92935C42.8315 10.5915 42.6971 11.2639 42.4281 11.9468C42.1798 12.6296 41.797 13.1986 41.2797 13.6538C40.7831 14.0883 40.1727 14.2952 39.4485 14.2745L39.3244 14.2124C39.3037 13.6745 39.1278 13.2503 38.7968 12.9399C38.4657 12.6296 38.0933 12.4744 37.6794 12.4744C37.1208 12.4744 36.5931 12.7537 36.0965 13.3124C35.6206 13.871 35.3827 14.678 35.3827 15.7333C35.3827 16.3747 35.4551 17.0678 35.6 17.8127C35.7448 18.5576 35.8172 19.1887 35.8172 19.706C35.8172 20.3267 35.6724 20.8957 35.3827 21.413C35.093 21.9303 34.7206 22.3441 34.2654 22.6545C33.8102 22.9442 33.3136 23.089 32.7756 23.089ZM49.3156 6.36011C48.4879 6.36011 47.8051 6.11182 47.2672 5.61523C46.7499 5.09795 46.4912 4.45652 46.4912 3.69094C46.4912 2.86329 46.8016 2.14944 47.4223 1.5494C48.0431 0.94935 48.7983 0.649327 49.688 0.649327C50.5157 0.649327 51.1881 0.907968 51.7054 1.42525C52.2434 1.94253 52.5124 2.58396 52.5124 3.34954C52.5124 4.17719 52.202 4.89103 51.5813 5.49108C50.9605 6.07044 50.2053 6.36011 49.3156 6.36011ZM47.143 23.089C46.336 23.089 45.6119 22.8097 44.9704 22.251C44.329 21.6716 44.0083 20.7509 44.0083 19.4887C44.0083 18.7645 44.1014 18.0921 44.2876 17.4713C44.4945 16.8299 44.7221 16.2091 44.9704 15.6091C45.2394 15.0091 45.467 14.4297 45.6532 13.871C45.8601 13.2917 45.9636 12.7227 45.9636 12.164C45.9636 11.6674 45.8808 11.3157 45.7153 11.1088C45.5498 10.8812 45.3532 10.7674 45.1256 10.7674C44.7739 10.7674 44.4324 10.995 44.1014 11.4502L43.8841 11.326C43.9669 10.4984 44.2255 9.79486 44.6601 9.21551C45.1153 8.61546 45.6636 8.14991 46.305 7.81885C46.9671 7.48779 47.6189 7.32226 48.2603 7.32226C49.0466 7.32226 49.7294 7.5809 50.3088 8.09818C50.8881 8.59477 51.1778 9.41207 51.1778 10.5501C51.1778 11.2329 51.0743 11.9571 50.8674 12.7227C50.6812 13.4676 50.4536 14.2124 50.1846 14.9573C49.9363 15.7022 49.7087 16.3954 49.5018 17.0368C49.3156 17.6782 49.2225 18.2265 49.2225 18.6818C49.2225 19.0749 49.2949 19.3542 49.4397 19.5197C49.6053 19.6853 49.7811 19.768 49.9674 19.768C50.1536 19.768 50.3295 19.7163 50.495 19.6129C50.6812 19.4887 50.8157 19.3542 50.8985 19.2094L51.1157 19.2715C51.1157 20.037 50.9088 20.7095 50.495 21.2889C50.1019 21.8475 49.6053 22.2924 49.0052 22.6234C48.4052 22.9338 47.7844 23.089 47.143 23.089ZM57.9809 23.089C57.3188 23.089 56.6877 22.9442 56.0877 22.6545C55.5083 22.3441 55.0324 21.8682 54.66 21.2268C54.3082 20.5853 54.1324 19.768 54.1324 18.7749C54.1324 18.2369 54.1841 17.5334 54.2875 16.6644C54.391 15.7953 54.5255 14.8435 54.691 13.809C54.8772 12.7744 55.0635 11.7398 55.2497 10.7053C54.8359 10.726 54.4324 10.7673 54.0393 10.8294C53.6668 10.8915 53.2944 10.9639 52.9219 11.0467L52.8599 10.8294C53.2737 10.3328 53.7082 9.90866 54.1634 9.55691C54.6186 9.20516 55.0945 8.91548 55.5911 8.68788C55.8601 7.32226 56.0877 6.14286 56.2739 5.14968C56.4601 4.1358 56.5532 3.53576 56.5532 3.34954C56.5532 2.99778 56.8222 2.70811 57.3602 2.4805C57.9189 2.2529 58.5396 2.1391 59.2224 2.1391C59.8225 2.1391 60.3811 2.2529 60.8984 2.4805C61.4364 2.70811 61.7985 3.09089 61.9847 3.62887C61.8605 3.75301 61.6847 4.21857 61.4571 5.02553C61.2295 5.81179 60.9915 6.77394 60.7432 7.91196C61.1364 7.93265 61.5398 7.95334 61.9537 7.97403C62.3675 7.99472 62.7917 8.02576 63.2262 8.06714C63.2676 8.19129 63.2986 8.32578 63.3193 8.47062C63.34 8.61546 63.3503 8.77064 63.3503 8.93617C63.3503 9.24654 63.2986 9.58795 63.1951 9.96039C63.1124 10.3121 63.0089 10.6329 62.8848 10.9225C62.3882 10.8812 61.9226 10.8398 61.4881 10.7984C61.0536 10.7363 60.6294 10.6949 60.2156 10.6742C60.0501 11.564 59.8949 12.4537 59.75 13.3434C59.6259 14.2331 59.5224 15.0401 59.4397 15.7643C59.3776 16.4885 59.3466 17.0575 59.3466 17.4713C59.3466 18.3403 59.5017 18.9197 59.8121 19.2094C60.1432 19.4991 60.5363 19.6439 60.9915 19.6439C61.4053 19.6439 61.7778 19.5611 62.1088 19.3956C62.4399 19.2301 62.6779 19.0335 62.8227 18.8059L63.1331 18.899C63.0089 19.7474 62.6779 20.4922 62.1399 21.1337C61.6019 21.7544 60.9605 22.2406 60.2156 22.5924C59.4707 22.9235 58.7258 23.089 57.9809 23.089ZM70.8549 23.1821C69.3445 23.1821 68.0927 22.8821 67.0995 22.282C66.1063 21.6613 65.3614 20.8543 64.8648 19.8612C64.3682 18.8473 64.1199 17.761 64.1199 16.6023C64.1199 15.5056 64.3268 14.409 64.7407 13.3124C65.1752 12.195 65.7959 11.1812 66.6029 10.2708C67.4305 9.36035 68.4237 8.62581 69.5824 8.06714C70.7618 7.50848 72.0861 7.22915 73.5551 7.22915C75.376 7.22915 76.7002 7.64297 77.5279 8.47062C78.3762 9.27758 78.8004 10.2604 78.8004 11.4191C78.8004 12.4123 78.5314 13.3331 77.9934 14.1814C77.4761 15.0091 76.783 15.6815 75.9139 16.1988C75.0449 16.6954 74.0931 16.9437 73.0586 16.9437C72.5206 16.9437 71.9723 16.8609 71.4136 16.6954C70.8549 16.5299 70.3066 16.2712 69.7686 15.9195C69.8721 17.2023 70.2445 18.1334 70.886 18.7128C71.5274 19.2921 72.293 19.5818 73.1827 19.5818C73.8034 19.5818 74.4242 19.468 75.0449 19.2404C75.6657 18.9921 76.2347 18.6818 76.7519 18.3093C77.2899 17.9162 77.7037 17.5024 77.9934 17.0678L78.2107 17.223C78.2107 18.299 77.9831 19.2197 77.5279 19.9853C77.0933 20.7302 76.514 21.3406 75.7898 21.8165C75.0656 22.2924 74.269 22.6441 73.4 22.8717C72.5516 23.0786 71.7033 23.1821 70.8549 23.1821ZM71.5688 14.8021C72.2309 14.8021 72.7689 14.6159 73.1827 14.2435C73.5965 13.8503 73.9069 13.3951 74.1138 12.8779C74.3207 12.3606 74.4242 11.9054 74.4242 11.5122C74.4242 11.0363 74.2897 10.6432 74.0207 10.3328C73.7517 10.0018 73.3793 9.83624 72.9034 9.83624C72.5309 9.83624 72.1171 9.97074 71.6619 10.2397C71.2274 10.5087 70.8342 10.9743 70.4825 11.6364C70.1307 12.2778 69.9031 13.1779 69.7997 14.3366C70.4618 14.647 71.0515 14.8021 71.5688 14.8021ZM93.0827 23.1821C91.4895 23.1821 90.1445 22.8821 89.0479 22.282C87.9719 21.682 87.1546 20.9164 86.596 19.9853C86.058 19.0335 85.789 18.0507 85.789 17.0368C85.789 15.8988 86.1201 14.8125 86.7822 13.7779C87.465 12.7227 88.4375 11.9261 89.6997 11.3881C88.9548 10.8915 88.3961 10.3121 88.0237 9.65002C87.6719 8.96721 87.496 8.25336 87.496 7.50848C87.496 6.66014 87.7133 5.82214 88.1478 4.99449C88.5823 4.16684 89.2134 3.41161 90.0411 2.7288C90.8687 2.0253 91.8722 1.46663 93.0516 1.05281C94.231 0.638982 95.5656 0.43207 97.0554 0.43207C98.9176 0.43207 100.221 0.742438 100.966 1.36318C101.732 1.98391 102.114 2.70811 102.114 3.53576C102.114 4.21857 101.887 4.90138 101.432 5.58419C100.976 6.267 100.325 6.83601 99.4763 7.29122C98.6486 7.74643 97.6554 7.97403 96.4967 7.97403C96.7657 7.39468 96.9519 6.88774 97.0554 6.45322C97.1589 5.99802 97.2106 5.60488 97.2106 5.27382C97.2106 4.73585 97.0864 4.34272 96.8381 4.09442C96.6105 3.84613 96.3209 3.72198 95.9691 3.72198C95.5139 3.72198 95.0277 3.89785 94.5104 4.2496C93.9931 4.60136 93.5482 5.0876 93.1758 5.70834C92.824 6.30838 92.6482 7.02223 92.6482 7.84988C92.6482 8.18094 92.6895 8.54304 92.7723 8.93617C92.8551 9.30862 92.9896 9.70175 93.1758 10.1156C93.6931 9.80521 94.1483 9.58795 94.5414 9.4638C94.9552 9.31896 95.3173 9.24654 95.6277 9.24654C96.2278 9.24654 96.6623 9.43276 96.9313 9.80521C97.2002 10.1776 97.3347 10.6122 97.3347 11.1088C97.3347 11.564 97.2313 12.0192 97.0244 12.4744C96.8175 12.9296 96.5174 13.3124 96.1243 13.6227C95.7312 13.9124 95.2553 14.0573 94.6966 14.0573C94.3655 14.0573 94.0138 13.9952 93.6413 13.871C93.2689 13.7262 92.8758 13.5089 92.4619 13.2193C92.1309 13.84 91.8929 14.4194 91.7481 14.9573C91.6033 15.4746 91.5308 15.9402 91.5308 16.354C91.5308 17.3472 91.8516 18.0817 92.493 18.5576C93.1551 19.0335 93.9414 19.2715 94.8518 19.2715C95.576 19.2715 96.3209 19.1266 97.0864 18.8369C97.8727 18.5473 98.5969 18.1334 99.259 17.5955C99.9211 17.0368 100.459 16.354 100.873 15.547C101.287 14.7401 101.494 13.809 101.494 12.7537C100.666 12.5675 100.076 12.2778 99.7246 11.8847C99.3728 11.4915 99.1969 11.0674 99.1969 10.6122C99.1969 9.99143 99.4349 9.42242 99.9108 8.90514C100.407 8.38786 100.945 8.12922 101.525 8.12922C101.876 8.12922 102.218 8.26371 102.549 8.53269C102.901 8.78099 103.201 9.20516 103.449 9.80521C104.235 9.1224 104.846 8.32578 105.28 7.41537C105.735 6.48426 105.963 5.55315 105.963 4.62205C105.963 4.14615 105.891 3.67025 105.746 3.19435C105.622 2.71845 105.415 2.27359 105.125 1.85977L105.342 1.64251C107.204 1.64251 108.601 1.96322 109.532 2.60465C110.463 3.24608 110.929 4.05304 110.929 5.02553C110.929 6.10147 110.36 7.27053 109.222 8.53269C108.105 9.77417 106.408 10.9018 104.132 11.9157C104.173 12.1847 104.204 12.4433 104.225 12.6916C104.246 12.9399 104.256 13.1779 104.256 13.4055C104.256 14.8746 103.935 16.2091 103.294 17.4092C102.652 18.6093 101.794 19.6439 100.718 20.5129C99.6418 21.3613 98.4417 22.0234 97.1175 22.4993C95.7932 22.9545 94.4483 23.1821 93.0827 23.1821ZM122.411 23.1511C121.025 23.1511 119.876 22.9131 118.966 22.4372C118.076 21.9613 117.414 21.3509 116.98 20.606C116.545 19.8612 116.328 19.0956 116.328 18.3093C116.328 17.5437 116.514 16.8195 116.887 16.1367C117.259 15.4332 117.787 14.8539 118.469 14.3987C119.173 13.9435 120.001 13.7159 120.952 13.7159C120.932 13.9021 120.921 14.078 120.921 14.2435C120.921 14.3883 120.921 14.4607 120.921 14.4607C120.921 15.8471 121.056 16.9437 121.325 17.7506C121.594 18.5369 121.935 19.1059 122.349 19.4577C122.763 19.7887 123.187 19.9543 123.622 19.9543C124.284 19.9543 124.873 19.6956 125.391 19.1783C125.908 18.6404 126.167 18.0196 126.167 17.3161C126.167 16.5299 125.825 15.8367 125.142 15.2367C124.48 14.6366 123.632 13.9745 122.597 13.2503C122.018 12.8158 121.397 12.3295 120.735 11.7916C120.094 11.2329 119.545 10.5811 119.09 9.83624C118.635 9.07067 118.407 8.1706 118.407 7.13603C118.407 6.06009 118.656 5.10829 119.152 4.28064C119.669 3.45299 120.342 2.75984 121.17 2.20117C122.018 1.62182 122.939 1.1873 123.932 0.897622C124.946 0.587254 125.949 0.43207 126.942 0.43207C128.163 0.43207 129.167 0.628636 129.953 1.02177C130.739 1.4149 131.329 1.92184 131.722 2.54258C132.115 3.16331 132.312 3.80474 132.312 4.46686C132.312 5.0876 132.136 5.68765 131.784 6.267C131.453 6.82567 130.957 7.28087 130.294 7.63263C129.632 7.98438 128.815 8.16025 127.843 8.16025C127.905 7.87057 127.946 7.61193 127.967 7.38433C127.987 7.13604 127.998 6.91878 127.998 6.73256C127.998 5.69799 127.77 4.96345 127.315 4.52894C126.88 4.07373 126.394 3.84612 125.856 3.84612C125.339 3.84612 124.842 4.04269 124.366 4.43583C123.89 4.80827 123.653 5.41866 123.653 6.267C123.653 6.9912 123.839 7.61193 124.211 8.12922C124.604 8.6465 125.101 9.1017 125.701 9.49484C126.322 9.88797 126.973 10.2708 127.656 10.6432C128.36 11.0156 129.032 11.4295 129.674 11.8847C130.336 12.3192 130.884 12.8365 131.319 13.4365C131.753 14.0366 131.97 14.7918 131.97 15.7022C131.97 16.654 131.712 17.5851 131.195 18.4955C130.677 19.3853 129.974 20.1819 129.084 20.8854C128.194 21.5682 127.17 22.1165 126.011 22.5303C124.873 22.9442 123.673 23.1511 122.411 23.1511ZM136.937 23.089C136.047 23.089 135.333 22.789 134.795 22.1889C134.257 21.5889 133.988 20.7716 133.988 19.737C133.988 19.1783 134.061 18.4542 134.206 17.5644C134.35 16.654 134.526 15.6608 134.733 14.5849C134.961 13.4882 135.178 12.3813 135.385 11.2639C135.592 10.1259 135.768 9.02928 135.913 7.97403C136.057 6.91878 136.13 5.98767 136.13 5.18071C136.13 4.16684 135.995 3.4323 135.726 2.97709V2.79087C136.182 2.27359 136.678 1.8908 137.216 1.64251C137.754 1.39421 138.282 1.27006 138.799 1.27006C139.585 1.27006 140.258 1.5494 140.816 2.10806C141.375 2.66672 141.654 3.50472 141.654 4.62205C141.654 5.22209 141.572 5.95663 141.406 6.82567C141.241 7.6947 141.044 8.60511 140.816 9.55691C140.589 10.5087 140.361 11.3984 140.134 12.2261C140.527 11.4605 141.044 10.7053 141.685 9.96039C142.348 9.19481 143.092 8.56373 143.92 8.06714C144.768 7.57055 145.648 7.32226 146.558 7.32226C147.593 7.32226 148.286 7.64297 148.638 8.2844C149.01 8.92583 149.196 9.72244 149.196 10.6742C149.196 11.5433 149.103 12.4744 148.917 13.4676C148.731 14.44 148.545 15.3815 148.358 16.2919C148.172 17.1816 148.079 17.9265 148.079 18.5266C148.079 19.3956 148.338 19.8301 148.855 19.8301C149.083 19.8301 149.279 19.768 149.445 19.6439C149.631 19.4991 149.765 19.3439 149.848 19.1783L150.065 19.3335C150.065 20.1405 149.869 20.8233 149.476 21.382C149.083 21.9406 148.576 22.3648 147.955 22.6545C147.355 22.9442 146.734 23.089 146.093 23.089C145.244 23.089 144.479 22.8097 143.796 22.251C143.113 21.6716 142.772 20.7405 142.772 19.4577C142.772 18.7335 142.865 17.9472 143.051 17.0989C143.258 16.2505 143.455 15.4332 143.641 14.647C143.827 13.84 143.92 13.1675 143.92 12.6296C143.92 11.9261 143.672 11.5743 143.175 11.5743C142.72 11.5743 142.223 11.8019 141.685 12.2571C141.147 12.7123 140.672 13.2813 140.258 13.9641C139.865 14.647 139.606 15.3194 139.482 15.9815C139.44 16.1471 139.42 16.3436 139.42 16.5712C139.42 17.0885 139.492 17.5851 139.637 18.061C139.803 18.5369 139.885 19.0956 139.885 19.737C139.885 20.6888 139.637 21.4854 139.14 22.1268C138.644 22.7683 137.909 23.089 136.937 23.089ZM157.551 6.36011C156.723 6.36011 156.04 6.11182 155.502 5.61523C154.985 5.09795 154.726 4.45652 154.726 3.69094C154.726 2.86329 155.037 2.14944 155.657 1.5494C156.278 0.94935 157.033 0.649327 157.923 0.649327C158.751 0.649327 159.423 0.907968 159.94 1.42525C160.478 1.94253 160.747 2.58396 160.747 3.34954C160.747 4.17719 160.437 4.89103 159.816 5.49108C159.196 6.07044 158.44 6.36011 157.551 6.36011ZM155.378 23.089C154.571 23.089 153.847 22.8097 153.205 22.251C152.564 21.6716 152.243 20.7509 152.243 19.4887C152.243 18.7645 152.336 18.0921 152.523 17.4713C152.73 16.8299 152.957 16.2091 153.205 15.6091C153.474 15.0091 153.702 14.4297 153.888 13.871C154.095 13.2917 154.199 12.7227 154.199 12.164C154.199 11.6674 154.116 11.3157 153.95 11.1088C153.785 10.8812 153.588 10.7674 153.361 10.7674C153.009 10.7674 152.668 10.995 152.336 11.4502L152.119 11.326C152.202 10.4984 152.461 9.79486 152.895 9.21551C153.35 8.61546 153.899 8.14991 154.54 7.81885C155.202 7.48779 155.854 7.32226 156.495 7.32226C157.282 7.32226 157.964 7.5809 158.544 8.09818C159.123 8.59477 159.413 9.41207 159.413 10.5501C159.413 11.2329 159.309 11.9571 159.102 12.7227C158.916 13.4676 158.689 14.2124 158.42 14.9573C158.171 15.7022 157.944 16.3954 157.737 17.0368C157.551 17.6782 157.458 18.2265 157.458 18.6818C157.458 19.0749 157.53 19.3542 157.675 19.5197C157.84 19.6853 158.016 19.768 158.202 19.768C158.389 19.768 158.565 19.7163 158.73 19.6129C158.916 19.4887 159.051 19.3542 159.134 19.2094L159.351 19.2715C159.351 20.037 159.144 20.7095 158.73 21.2889C158.337 21.8475 157.84 22.2924 157.24 22.6234C156.64 22.9338 156.019 23.089 155.378 23.089ZM165.349 23.058C164.584 23.058 163.89 22.7579 163.27 22.1579C162.649 21.5371 162.339 20.6785 162.339 19.5818C162.339 19.0439 162.411 18.4335 162.556 17.7506C162.701 17.0678 162.856 16.3747 163.021 15.6712C163.208 14.9677 163.373 14.3056 163.518 13.6848C163.663 13.0641 163.735 12.5571 163.735 12.164C163.735 11.7502 163.652 11.4295 163.487 11.2019C163.321 10.9536 163.104 10.8294 162.835 10.8294C162.483 10.8294 162.101 11.0363 161.687 11.4502L161.501 11.326C161.48 10.995 161.552 10.6018 161.718 10.1466C161.883 9.6914 162.132 9.25689 162.463 8.84306C162.814 8.40855 163.259 8.04645 163.797 7.75677C164.335 7.4671 164.977 7.32226 165.722 7.32226C166.818 7.32226 167.625 7.64297 168.142 8.2844C168.68 8.90514 168.949 9.67071 168.949 10.5811C168.949 10.9122 168.918 11.2329 168.856 11.5433C169.291 10.9018 169.829 10.2604 170.47 9.61899C171.112 8.95687 171.815 8.40855 172.581 7.97403C173.367 7.53951 174.174 7.32226 175.002 7.32226C175.974 7.32226 176.636 7.63263 176.988 8.25336C177.34 8.8741 177.516 9.65002 177.516 10.5811C177.516 11.4502 177.422 12.3813 177.236 13.3744C177.05 14.3676 176.864 15.3298 176.678 16.2609C176.491 17.1713 176.398 17.9369 176.398 18.5576C176.398 19.3853 176.636 19.7991 177.112 19.7991C177.36 19.7991 177.578 19.7267 177.764 19.5818C177.95 19.4163 178.074 19.2611 178.136 19.1163L178.354 19.2094C178.354 19.975 178.136 20.6474 177.702 21.2268C177.288 21.8061 176.76 22.2613 176.119 22.5924C175.478 22.9028 174.826 23.058 174.164 23.058C173.357 23.058 172.643 22.7786 172.022 22.22C171.401 21.6613 171.091 20.7509 171.091 19.4887C171.091 18.7438 171.184 17.9369 171.37 17.0678C171.577 16.1988 171.774 15.3608 171.96 14.5538C172.146 13.7469 172.239 13.0848 172.239 12.5675C172.239 12.2571 172.177 12.0192 172.053 11.8536C171.95 11.6674 171.753 11.5743 171.463 11.5743C170.988 11.5743 170.46 11.7916 169.881 12.2261C169.322 12.6606 168.836 13.24 168.422 13.9641C168.029 14.6883 167.832 15.485 167.832 16.354C167.832 16.9127 167.894 17.4506 168.018 17.9679C168.163 18.4852 168.236 19.0439 168.236 19.6439C168.236 20.7612 167.946 21.6096 167.367 22.1889C166.787 22.7683 166.115 23.058 165.349 23.058ZM186.576 23.1821C185.066 23.1821 183.814 22.8821 182.821 22.282C181.828 21.6613 181.083 20.8543 180.586 19.8612C180.09 18.8473 179.841 17.761 179.841 16.6023C179.841 15.5056 180.048 14.409 180.462 13.3124C180.897 12.195 181.517 11.1812 182.324 10.2708C183.152 9.36035 184.145 8.62581 185.304 8.06714C186.483 7.50848 187.808 7.22915 189.277 7.22915C191.097 7.22915 192.422 7.64297 193.249 8.47062C194.098 9.27758 194.522 10.2604 194.522 11.4191C194.522 12.4123 194.253 13.3331 193.715 14.1814C193.198 15.0091 192.504 15.6815 191.635 16.1988C190.766 16.6954 189.815 16.9437 188.78 16.9437C188.242 16.9437 187.694 16.8609 187.135 16.6954C186.576 16.5299 186.028 16.2712 185.49 15.9195C185.594 17.2023 185.966 18.1334 186.607 18.7128C187.249 19.2921 188.014 19.5818 188.904 19.5818C189.525 19.5818 190.146 19.468 190.766 19.2404C191.387 18.9921 191.956 18.6818 192.473 18.3093C193.011 17.9162 193.425 17.5024 193.715 17.0678L193.932 17.223C193.932 18.299 193.705 19.2197 193.249 19.9853C192.815 20.7302 192.235 21.3406 191.511 21.8165C190.787 22.2924 189.99 22.6441 189.121 22.8717C188.273 23.0786 187.425 23.1821 186.576 23.1821ZM187.29 14.8021C187.952 14.8021 188.49 14.6159 188.904 14.2435C189.318 13.8503 189.628 13.3951 189.835 12.8779C190.042 12.3606 190.146 11.9054 190.146 11.5122C190.146 11.0363 190.011 10.6432 189.742 10.3328C189.473 10.0018 189.101 9.83624 188.625 9.83624C188.252 9.83624 187.839 9.97074 187.383 10.2397C186.949 10.5087 186.556 10.9743 186.204 11.6364C185.852 12.2778 185.625 13.1779 185.521 14.3366C186.183 14.647 186.773 14.8021 187.29 14.8021Z" fill="white"/>
</svg>
