<svg width="228" height="118" viewBox="0 0 228 118" fill="none" xmlns="http://www.w3.org/2000/svg">
<path d="M26 117.8C20.1333 117.8 15.2267 115.347 11.28 110.44C7.33333 105.533 5.36 98.8133 5.36 90.28C5.36 85.9067 5.84 81 6.8 75.56C7.76 70.0133 8.88 64.4133 10.16 58.76C11.44 53.1067 12.56 47.8267 13.52 42.92C14.48 37.9067 14.96 33.7467 14.96 30.44C14.96 28.0933 14.64 26.28 14 25C13.36 23.6133 12.1867 22.92 10.48 22.92C9.2 22.92 7.70667 23.5067 6 24.68C4.29333 25.8533 3.01333 28.1467 2.16 31.56L0.56 30.92C0.56 21.7467 2.64 14.4933 6.8 9.16C11.0667 3.82666 16.7733 1.15999 23.92 1.15999C30.64 1.15999 35.28 3.34666 37.84 7.72C40.5067 12.0933 41.84 17.5867 41.84 24.2C41.84 29.1067 41.3067 34.3333 40.24 39.88C39.28 45.4267 38.16 50.9733 36.88 56.52C35.6 61.96 34.4267 67.0267 33.36 71.72C32.4 76.4133 31.92 80.3067 31.92 83.4C31.92 87.9867 33.0933 90.28 35.44 90.28C36.8267 90.28 38.6933 89.32 41.04 87.4C43.3867 85.3733 45.84 82.6533 48.4 79.24C51.0667 75.72 53.6267 71.7733 56.08 67.4C58.5333 62.92 60.6133 58.2267 62.32 53.32C62.1067 50.9733 61.9467 48.7333 61.84 46.6C61.7333 44.36 61.68 42.3867 61.68 40.68C61.68 32.1467 62.48 25.2667 64.08 20.04C65.7867 14.8133 67.92 10.9733 70.48 8.51999C73.04 6.06666 75.6533 4.83999 78.32 4.83999C82.0533 4.83999 85.4133 6.91999 88.4 11.08C91.3867 15.1333 92.88 20.68 92.88 27.72C92.88 32.0933 92.08 37 90.48 42.44C88.88 47.7733 86.2133 53.48 82.48 59.56C82.16 68.7333 83.1733 76.1467 85.52 81.8C87.8667 87.4533 90.8 90.28 94.32 90.28C96.56 90.28 98.96 89.16 101.52 86.92C104.187 84.5733 106.64 81.3733 108.88 77.32C111.12 73.16 112.933 68.36 114.32 62.92C115.813 57.48 116.56 51.6667 116.56 45.48C116.56 41.8533 116.293 38.0667 115.76 34.12C115.333 30.1733 114.747 26.3867 114 22.76C113.36 19.1333 112.667 16.1467 111.92 13.8C111.92 11.9867 112.667 10.1733 114.16 8.36C115.76 6.44 117.787 4.83999 120.24 3.55999C122.693 2.17332 125.2 1.47999 127.76 1.47999C130.32 1.47999 132.773 2.38666 135.12 4.19999C137.467 6.01333 139.387 9.21333 140.88 13.8C142.373 18.28 143.12 24.68 143.12 33C143.12 44.6267 141.627 55.56 138.64 65.8C135.653 75.9333 131.6 84.8933 126.48 92.68C121.467 100.467 115.92 106.6 109.84 111.08C103.76 115.453 97.5733 117.64 91.28 117.64C85.7333 117.64 81.1467 115.933 77.52 112.52C73.8933 109.107 71.0667 104.52 69.04 98.76C67.0133 93 65.5733 86.6 64.72 79.56C60.88 88.7333 56.72 96.1467 52.24 101.8C47.76 107.347 43.28 111.4 38.8 113.96C34.32 116.52 30.0533 117.8 26 117.8ZM176.793 117.96C169.646 117.96 163.726 116.733 159.033 114.28C154.446 111.827 151.033 108.68 148.793 104.84C146.553 101 145.433 97.0533 145.433 93C145.433 89.0533 146.393 85.32 148.313 81.8C150.233 78.1733 152.953 75.1867 156.473 72.84C160.099 70.4933 164.366 69.32 169.273 69.32C169.166 70.28 169.113 71.1867 169.113 72.04C169.113 72.7867 169.113 73.16 169.113 73.16C169.113 80.3067 169.806 85.96 171.193 90.12C172.579 94.1733 174.339 97.1067 176.473 98.92C178.606 100.627 180.793 101.48 183.033 101.48C186.446 101.48 189.486 100.147 192.153 97.48C194.819 94.7067 196.153 91.5067 196.153 87.88C196.153 83.8267 194.393 80.2533 190.873 77.16C187.459 74.0667 183.086 70.6533 177.753 66.92C174.766 64.68 171.566 62.1733 168.153 59.4C164.846 56.52 162.019 53.16 159.673 49.32C157.326 45.3733 156.153 40.7333 156.153 35.4C156.153 29.8533 157.433 24.9467 159.993 20.68C162.659 16.4133 166.126 12.84 170.393 9.96C174.766 6.97333 179.513 4.73333 184.633 3.24C189.859 1.64 195.033 0.839998 200.153 0.839998C206.446 0.839998 211.619 1.85333 215.673 3.88C219.726 5.90666 222.766 8.51999 224.793 11.72C226.819 14.92 227.833 18.2267 227.833 21.64C227.833 24.84 226.926 27.9333 225.112 30.92C223.406 33.8 220.846 36.1467 217.433 37.96C214.019 39.7733 209.806 40.68 204.793 40.68C205.113 39.1867 205.326 37.8533 205.433 36.68C205.539 35.4 205.593 34.28 205.593 33.32C205.593 27.9867 204.419 24.2 202.073 21.96C199.833 19.6133 197.326 18.44 194.553 18.44C191.886 18.44 189.326 19.4533 186.873 21.48C184.419 23.4 183.193 26.5467 183.193 30.92C183.193 34.6533 184.153 37.8533 186.073 40.52C188.099 43.1867 190.659 45.5333 193.753 47.56C196.953 49.5867 200.313 51.56 203.833 53.48C207.459 55.4 210.926 57.5333 214.233 59.88C217.646 62.12 220.473 64.7867 222.713 67.88C224.953 70.9733 226.073 74.8667 226.073 79.56C226.073 84.4667 224.739 89.2667 222.073 93.96C219.406 98.5467 215.779 102.653 211.193 106.28C206.606 109.8 201.326 112.627 195.353 114.76C189.486 116.893 183.299 117.96 176.793 117.96Z" fill="white"/>
</svg>
