<svg width="512" height="513" viewBox="0 0 512 513" fill="none" xmlns="http://www.w3.org/2000/svg">
<mask id="mask0_2830_1463" style="mask-type:alpha" maskUnits="userSpaceOnUse" x="0" y="0" width="512" height="513">
<rect y="0.605469" width="512" height="512" fill="#D9D9D9"/>
</mask>
<g mask="url(#mask0_2830_1463)">
<path d="M124.821 365.426C142.954 351.56 163.221 340.626 185.621 332.626C208.021 324.626 231.488 320.626 256.021 320.626C280.554 320.626 304.021 324.626 326.421 332.626C348.821 340.626 369.088 351.56 387.221 365.426C399.665 350.849 409.354 334.315 416.288 315.826C423.221 297.337 426.688 277.604 426.688 256.626C426.688 209.337 410.065 169.071 376.821 135.826C343.576 102.582 303.31 85.9596 256.021 85.9596C208.732 85.9596 168.465 102.582 135.221 135.826C101.976 169.071 85.3542 209.337 85.3542 256.626C85.3542 277.604 88.8208 297.337 95.7542 315.826C102.688 334.315 112.376 350.849 124.821 365.426ZM256.021 277.96C235.043 277.96 217.354 270.76 202.954 256.36C188.554 241.96 181.354 224.271 181.354 203.293C181.354 182.315 188.554 164.626 202.954 150.226C217.354 135.826 235.043 128.626 256.021 128.626C276.999 128.626 294.688 135.826 309.088 150.226C323.488 164.626 330.688 182.315 330.688 203.293C330.688 224.271 323.488 241.96 309.088 256.36C294.688 270.76 276.999 277.96 256.021 277.96ZM256.021 469.96C226.51 469.96 198.776 464.36 172.821 453.16C146.865 441.96 124.288 426.76 105.088 407.56C85.8875 388.36 70.6875 365.782 59.4875 339.826C48.2875 313.871 42.6875 286.137 42.6875 256.626C42.6875 227.115 48.2875 199.382 59.4875 173.426C70.6875 147.471 85.8875 124.893 105.088 105.693C124.288 86.493 146.865 71.293 172.821 60.093C198.776 48.893 226.51 43.293 256.021 43.293C285.532 43.293 313.265 48.893 339.221 60.093C365.176 71.293 387.754 86.493 406.954 105.693C426.154 124.893 441.354 147.471 452.554 173.426C463.754 199.382 469.354 227.115 469.354 256.626C469.354 286.137 463.754 313.871 452.554 339.826C441.354 365.782 426.154 388.36 406.954 407.56C387.754 426.76 365.176 441.96 339.221 453.16C313.265 464.36 285.532 469.96 256.021 469.96Z" fill="#363636"/>
</g>
</svg>
